<mxfile host="app.diagrams.net" agent="Mozilla/5.0 (Windows NT 10.0; Win64; x64) AppleWebKit/537.36 (KHTML, like Gecko) Chrome/128.0.0.0 Safari/537.36" version="24.7.12">
  <diagram name="Page-1" id="qY6wIf-TYCN1N58yRhH1">
    <mxGraphModel dx="794" dy="1512" grid="1" gridSize="10" guides="1" tooltips="1" connect="1" arrows="1" fold="1" page="1" pageScale="1" pageWidth="850" pageHeight="1100" math="0" shadow="0">
      <root>
        <mxCell id="0" />
        <mxCell id="1" parent="0" />
        <mxCell id="6Szy1-F60oBor6cSgddL-1" value="SplitWise Application&lt;div&gt;User can pay bill and split&lt;/div&gt;&lt;div&gt;3 Types of expense EXACT, EQUAL and PERSENT&lt;/div&gt;&lt;div&gt;&lt;br&gt;&lt;/div&gt;&lt;div&gt;&lt;b&gt;Objects&lt;/b&gt;&lt;/div&gt;&lt;div&gt;&lt;b&gt;User, Transaction, TransactionType, Expense&lt;/b&gt;&lt;/div&gt;" style="rounded=0;whiteSpace=wrap;html=1;align=left;" vertex="1" parent="1">
          <mxGeometry x="40" y="-40" width="300" height="100" as="geometry" />
        </mxCell>
        <mxCell id="6Szy1-F60oBor6cSgddL-22" style="edgeStyle=orthogonalEdgeStyle;rounded=0;orthogonalLoop=1;jettySize=auto;html=1;" edge="1" parent="1" source="6Szy1-F60oBor6cSgddL-2">
          <mxGeometry relative="1" as="geometry">
            <mxPoint x="90" y="520" as="targetPoint" />
            <Array as="points">
              <mxPoint x="30" y="520" />
            </Array>
          </mxGeometry>
        </mxCell>
        <mxCell id="6Szy1-F60oBor6cSgddL-2" value="User" style="swimlane;whiteSpace=wrap;html=1;" vertex="1" parent="1">
          <mxGeometry x="30" y="280" width="130" height="130" as="geometry" />
        </mxCell>
        <mxCell id="6Szy1-F60oBor6cSgddL-6" style="edgeStyle=orthogonalEdgeStyle;rounded=0;orthogonalLoop=1;jettySize=auto;html=1;entryX=0;entryY=0.5;entryDx=0;entryDy=0;" edge="1" parent="1" source="6Szy1-F60oBor6cSgddL-3" target="6Szy1-F60oBor6cSgddL-4">
          <mxGeometry relative="1" as="geometry" />
        </mxCell>
        <mxCell id="6Szy1-F60oBor6cSgddL-19" style="edgeStyle=orthogonalEdgeStyle;rounded=0;orthogonalLoop=1;jettySize=auto;html=1;entryX=0;entryY=0.5;entryDx=0;entryDy=0;" edge="1" parent="1" source="6Szy1-F60oBor6cSgddL-3" target="6Szy1-F60oBor6cSgddL-18">
          <mxGeometry relative="1" as="geometry">
            <Array as="points">
              <mxPoint x="405" />
              <mxPoint x="505" />
              <mxPoint x="505" y="5" />
            </Array>
          </mxGeometry>
        </mxCell>
        <mxCell id="6Szy1-F60oBor6cSgddL-3" value="Split" style="swimlane;whiteSpace=wrap;html=1;" vertex="1" parent="1">
          <mxGeometry x="350" y="130" width="110" height="110" as="geometry" />
        </mxCell>
        <mxCell id="6Szy1-F60oBor6cSgddL-17" value="int amount&lt;div&gt;ExpenseType&amp;nbsp;&lt;/div&gt;" style="text;html=1;align=left;verticalAlign=middle;resizable=0;points=[];autosize=1;strokeColor=none;fillColor=none;" vertex="1" parent="6Szy1-F60oBor6cSgddL-3">
          <mxGeometry x="10" y="30" width="100" height="40" as="geometry" />
        </mxCell>
        <mxCell id="6Szy1-F60oBor6cSgddL-4" value="SplitType" style="swimlane;whiteSpace=wrap;html=1;startSize=23;" vertex="1" parent="1">
          <mxGeometry x="560" y="137.5" width="120" height="95" as="geometry" />
        </mxCell>
        <mxCell id="6Szy1-F60oBor6cSgddL-15" style="edgeStyle=orthogonalEdgeStyle;rounded=0;orthogonalLoop=1;jettySize=auto;html=1;entryX=0.5;entryY=1;entryDx=0;entryDy=0;" edge="1" parent="1" source="6Szy1-F60oBor6cSgddL-9" target="6Szy1-F60oBor6cSgddL-14">
          <mxGeometry relative="1" as="geometry" />
        </mxCell>
        <mxCell id="6Szy1-F60oBor6cSgddL-9" value="GroupTransaction" style="swimlane;whiteSpace=wrap;html=1;" vertex="1" parent="1">
          <mxGeometry x="340" y="480" width="140" height="120" as="geometry" />
        </mxCell>
        <mxCell id="6Szy1-F60oBor6cSgddL-10" value="id&lt;div&gt;User payer&lt;/div&gt;&lt;div&gt;List&amp;lt;Users&amp;gt; friends&lt;br&gt;&lt;div&gt;createTransaction()&lt;/div&gt;&lt;div&gt;deleteTransaction()&lt;/div&gt;&lt;div&gt;getAllTransaction()&lt;/div&gt;&lt;/div&gt;" style="text;html=1;align=left;verticalAlign=middle;resizable=0;points=[];autosize=1;strokeColor=none;fillColor=none;" vertex="1" parent="6Szy1-F60oBor6cSgddL-9">
          <mxGeometry x="10" y="20" width="130" height="100" as="geometry" />
        </mxCell>
        <mxCell id="6Szy1-F60oBor6cSgddL-14" value="Transaction" style="swimlane;whiteSpace=wrap;html=1;" vertex="1" parent="1">
          <mxGeometry x="345" y="280" width="130" height="120" as="geometry" />
        </mxCell>
        <mxCell id="6Szy1-F60oBor6cSgddL-16" style="edgeStyle=orthogonalEdgeStyle;rounded=0;orthogonalLoop=1;jettySize=auto;html=1;entryX=1;entryY=0.75;entryDx=0;entryDy=0;" edge="1" parent="1" source="6Szy1-F60oBor6cSgddL-10" target="6Szy1-F60oBor6cSgddL-3">
          <mxGeometry relative="1" as="geometry">
            <Array as="points">
              <mxPoint x="415" y="450" />
              <mxPoint x="550" y="450" />
              <mxPoint x="550" y="213" />
            </Array>
          </mxGeometry>
        </mxCell>
        <mxCell id="6Szy1-F60oBor6cSgddL-18" value="SplitMetaDeta" style="swimlane;whiteSpace=wrap;html=1;" vertex="1" parent="1">
          <mxGeometry x="550" y="-60" width="140" height="130" as="geometry" />
        </mxCell>
        <mxCell id="6Szy1-F60oBor6cSgddL-21" value="TransactionManager" style="swimlane;whiteSpace=wrap;html=1;" vertex="1" parent="1">
          <mxGeometry x="90" y="450" width="160" height="160" as="geometry" />
        </mxCell>
      </root>
    </mxGraphModel>
  </diagram>
</mxfile>
